#!OML:ASF E:\Steps\Project 1\Capture day 1\Session 2\Subject.ASF
:FULLY-SPECIFIED
:DEGREES
166
root -0.947609 17.9731 21 -154.72 -2.95643 177.828
lowerback -26.8906 -2.74131 -6.80938
upperback -0.0774083 -1.86745 -0.0918922
thorax 14.483 -1.47417 2.88751
lowerneck 2.01515 -1.28839 -2.17358
upperneck 15.465 -1.33388 6.79303
head 4.34021 0.0521203 2.45105
rclavicle -2.68359e-015 1.98785e-014
rhumerus -38.162 -17.3024 -77.8295
rradius 33.31
rwrist -0.912441
rhand -9.07418 -57.1564
rfingers 7.12502
rthumb 16.875 -86.4432
lclavicle -2.68359e-015 1.98785e-014
lhumerus -29.8721 3.98478 81.662
lradius 25.7108
lwrist -2.2848
lhand -22.1806 -12.986
lfingers 7.12502
lthumb 4.23435 16.9516
rfemur -22.6736 5.0361 19.8896
rtibia 5.47123
rfoot -17.4386 -3.80423
rtoes -15.3908
lfemur -23.7656 -9.30642 -21.5311
ltibia 7.74842
lfoot -5.54338 -3.88969
ltoes -15.9983
167
root -0.946681 17.9737 21.0034 -154.724 -2.93491 177.831
lowerback -26.8342 -2.73892 -6.83241
upperback -0.0797308 -1.86241 -0.0761385
thorax 14.4539 -1.47278 2.92102
lowerneck 1.35439 -1.41624 -2.40902
upperneck 16.131 -1.51815 6.91129
head 4.6649 -0.0108007 2.52905
rclavicle -4.37326e-015 3.06128e-014
rhumerus -38.1442 -17.367 -77.7906
rradius 33.3241
rwrist -0.912301
rhand -8.98272 -57.2048
rfingers 7.12502
rthumb 16.9631 -86.484
lclavicle -4.37326e-015 3.06128e-014
lhumerus -29.833 3.96156 81.7348
lradius 25.7339
lwrist -2.20023
lhand -22.2226 -13.053
lfingers 7.12502
lthumb 4.19383 16.8854
rfemur -22.7077 4.94559 19.9308
rtibia 5.54775
rfoot -17.4239 -3.72865
rtoes -15.486
lfemur -23.7887 -9.22502 -21.5422
ltibia 7.78699
lfoot -5.56294 -3.91701
ltoes -15.7752
168
root -0.94739 17.974 21.0035 -154.755 -2.87779 177.859
lowerback -26.8332 -2.70861 -6.81452
upperback -0.0491757 -1.82221 -0.0835785
thorax 14.4843 -1.45324 2.91853
lowerneck 1.07523 -1.52286 -2.46189
upperneck 16.3616 -1.67222 6.95839
head 4.7908 -0.0753218 2.54953
rclavicle 1.58034e-014 3.57812e-015
rhumerus -38.1199 -17.4813 -77.7802
rradius 33.3551
rwrist -0.859732
rhand -8.97949 -57.2867
rfingers 7.12502
rthumb 16.9662 -86.5657
lclavicle 1.58034e-014 3.57812e-015
lhumerus -29.7878 3.9129 81.7806
lradius 25.7585
lwrist -2.05747
lhand -22.319 -13.0765
lfingers 7.12502
lthumb 4.1007 16.8637
rfemur -22.6885 5.0329 19.9241
rtibia 5.56392
rfoot -17.381 -3.71186
rtoes -15.2133
lfemur -23.7322 -9.29566 -21.4946
ltibia 7.75331
lfoot -5.63421 -3.75297
ltoes -16.1796
169
root -0.948718 17.975 21.0031 -154.782 -2.83419 177.882
lowerback -26.8353 -2.7073 -6.82246
upperback -0.0448615 -1.81815 -0.0769991
thorax 14.4903 -1.45227 2.93149
lowerneck 1.04305 -1.62986 -2.42481
upperneck 16.4159 -1.81359 6.9017
head 4.8195 -0.143548 2.52073
rclavicle -1.97791e-014 -2.26615e-014
rhumerus -38.1121 -17.4846 -77.7866
rradius 33.3218
rwrist -0.879779
rhand -9.01315 -57.0124
rfingers 7.12502
rthumb 16.9338 -86.2942
lclavicle -1.97791e-014 -2.26615e-014
lhumerus -29.7805 3.91127 81.7746
lradius 25.7319
lwrist -2.00945
lhand -22.3076 -12.9142
lfingers 7.12502
lthumb 4.11171 17.0259
rfemur -22.6828 5.03379 19.9346
rtibia 5.59415
rfoot -17.4057 -3.69718
rtoes -15.6005
lfemur -23.679 -9.37775 -21.4512
ltibia 7.69959
lfoot -5.68631 -3.62817
ltoes -16.5111
170
root -0.947286 17.9766 21.0081 -154.765 -2.84683 177.859
lowerback -26.7748 -2.73663 -6.89027
upperback -0.0816704 -1.84603 -0.0720114
thorax 14.4226 -1.4686 2.96506
lowerneck 1.14805 -1.72725 -2.37625
upperneck 16.2933 -1.94597 6.84822
head 4.77005 -0.216502 2.48929
rclavicle -5.26779e-015 -3.29983e-014
rhumerus -38.1429 -17.4075 -77.8113
rradius 33.3489
rwrist -0.975451
rhand -8.99553 -57.2052
rfingers 7.12502
rthumb 16.9507 -86.4856
lclavicle -5.26779e-015 -3.29983e-014
lhumerus -29.7951 3.89981 81.7595
lradius 25.6983
lwrist -2.00003
lhand -22.2028 -12.7379
lfingers 7.12502
lthumb 4.21291 17.2002
rfemur -22.7133 5.23899 19.8844
rtibia 5.60846
rfoot -17.4523 -4.01252
rtoes -15.5723
lfemur -23.7342 -9.26749 -21.4864
ltibia 7.72548
lfoot -5.63123 -3.78559
ltoes -15.6301
171
root -0.950776 17.9747 21.0036 -154.789 -2.80023 177.842
lowerback -26.8189 -2.71614 -6.86982
upperback -0.0888759 -1.82072 -0.103035
thorax 14.4309 -1.45595 2.92823
lowerneck 1.48397 -1.76445 -2.30888
upperneck 15.9199 -2.00099 6.83779
head 4.60108 -0.260771 2.46913
rclavicle -7.15625e-015 -2.18663e-014
rhumerus -38.2257 -17.2722 -77.8651
rradius 33.4645
rwrist -1.08983
rhand -9.04405 -57.6654
rfingers 7.12502
rthumb 16.904 -86.9497
lclavicle -7.15625e-015 -2.18663e-014
lhumerus -29.8443 3.85255 81.7647
lradius 25.6859
lwrist -1.93686
lhand -22.0675 -12.822
lfingers 7.12502
lthumb 4.34364 17.1135
rfemur -22.6525 5.34063 19.8017
rtibia 5.53556
rfoot -17.4252 -4.08447
rtoes -15.1399
lfemur -23.6507 -9.4196 -21.504
ltibia 7.64615
lfoot -5.59494 -3.61346
ltoes -14.829
